<?xml version="1.0" encoding="UTF-8" standalone="no"?>
<!DOCTYPE svg PUBLIC "-//W3C//DTD SVG 1.1//EN"
 "http://www.w3.org/Graphics/SVG/1.1/DTD/svg11.dtd">
<!-- Generated by graphviz version 2.43.0 (0)
 -->
<!-- Title: G Pages: 1 -->
<svg width="665pt" height="261pt"
 viewBox="0.00 0.00 665.00 260.50" xmlns="http://www.w3.org/2000/svg" xmlns:xlink="http://www.w3.org/1999/xlink">
<g id="graph0" class="graph" transform="scale(1 1) rotate(0) translate(4 256.5)">
<title>G</title>
<polygon fill="white" stroke="transparent" points="-4,4 -4,-256.5 661,-256.5 661,4 -4,4"/>
<g id="clust2" class="cluster">
<title>cluster_8d6da84a</title>
<polygon fill="none" stroke="black" stroke-dasharray="1,5" points="106,-115.5 106,-244.5 649,-244.5 649,-115.5 106,-115.5"/>
<text text-anchor="middle" x="377.5" y="-229.3" font-family="Times,serif" font-size="14.00">File: train_ensemble</text>
</g>
<!-- Legend -->
<g id="node1" class="node">
<title>Legend</title>
<polygon fill="none" stroke="black" points="1.5,-88.5 1.5,-105.5 326.5,-105.5 326.5,-88.5 1.5,-88.5"/>
<text text-anchor="start" x="98" y="-93.3" font-family="Times,serif" font-size="14.00">Code2flow Legend</text>
<polygon fill="none" stroke="black" points="1.5,-0.5 1.5,-88.5 326.5,-88.5 326.5,-0.5 1.5,-0.5"/>
<polygon fill="none" stroke="black" points="3.5,-65.5 3.5,-86.5 274.5,-86.5 274.5,-65.5 3.5,-65.5"/>
<text text-anchor="start" x="79" y="-72.3" font-family="Times,serif" font-size="14.00">Regular function</text>
<polygon fill="#cccccc" stroke="transparent" points="274.5,-65.5 274.5,-86.5 324.5,-86.5 324.5,-65.5 274.5,-65.5"/>
<polygon fill="none" stroke="black" points="274.5,-65.5 274.5,-86.5 324.5,-86.5 324.5,-65.5 274.5,-65.5"/>
<polygon fill="none" stroke="black" points="3.5,-44.5 3.5,-65.5 274.5,-65.5 274.5,-44.5 3.5,-44.5"/>
<text text-anchor="start" x="17" y="-51.3" font-family="Times,serif" font-size="14.00">Trunk function (nothing calls this)</text>
<polygon fill="#966f33" stroke="transparent" points="274.5,-44.5 274.5,-65.5 324.5,-65.5 324.5,-44.5 274.5,-44.5"/>
<polygon fill="none" stroke="black" points="274.5,-44.5 274.5,-65.5 324.5,-65.5 324.5,-44.5 274.5,-44.5"/>
<polygon fill="none" stroke="black" points="3.5,-23.5 3.5,-44.5 274.5,-44.5 274.5,-23.5 3.5,-23.5"/>
<text text-anchor="start" x="6.5" y="-30.3" font-family="Times,serif" font-size="14.00">Leaf function (this calls nothing else)</text>
<polygon fill="#6db33f" stroke="transparent" points="274.5,-23.5 274.5,-44.5 324.5,-44.5 324.5,-23.5 274.5,-23.5"/>
<polygon fill="none" stroke="black" points="274.5,-23.5 274.5,-44.5 324.5,-44.5 324.5,-23.5 274.5,-23.5"/>
<polygon fill="none" stroke="black" points="3.5,-2.5 3.5,-23.5 274.5,-23.5 274.5,-2.5 3.5,-2.5"/>
<text text-anchor="start" x="92.5" y="-9.3" font-family="Times,serif" font-size="14.00">Function call</text>
<polygon fill="none" stroke="black" points="274.5,-2.5 274.5,-23.5 324.5,-23.5 324.5,-2.5 274.5,-2.5"/>
<text text-anchor="start" x="293" y="-9.3" font-family="Times,serif" font-size="14.00">→</text>
<polygon fill="none" stroke="black" points="2.5,-1.5 2.5,-87.5 325.5,-87.5 325.5,-1.5 2.5,-1.5"/>
<polygon fill="none" stroke="black" points="0,0 0,-107 327,-107 327,0 0,0"/>
</g>
<!-- node_3948b6a2 -->
<g id="node2" class="node">
<title>node_3948b6a2</title>
<path fill="#966f33" stroke="black" d="M201,-187.5C201,-187.5 126,-187.5 126,-187.5 120,-187.5 114,-181.5 114,-175.5 114,-175.5 114,-163.5 114,-163.5 114,-157.5 120,-151.5 126,-151.5 126,-151.5 201,-151.5 201,-151.5 207,-151.5 213,-157.5 213,-163.5 213,-163.5 213,-175.5 213,-175.5 213,-181.5 207,-187.5 201,-187.5"/>
<text text-anchor="middle" x="163.5" y="-165.8" font-family="Times,serif" font-size="14.00">0: (global)()</text>
</g>
<!-- node_6924cba2 -->
<g id="node3" class="node">
<title>node_6924cba2</title>
<path fill="#6db33f" stroke="black" d="M607.5,-159.5C607.5,-159.5 396.5,-159.5 396.5,-159.5 390.5,-159.5 384.5,-153.5 384.5,-147.5 384.5,-147.5 384.5,-135.5 384.5,-135.5 384.5,-129.5 390.5,-123.5 396.5,-123.5 396.5,-123.5 607.5,-123.5 607.5,-123.5 613.5,-123.5 619.5,-129.5 619.5,-135.5 619.5,-135.5 619.5,-147.5 619.5,-147.5 619.5,-153.5 613.5,-159.5 607.5,-159.5"/>
<text text-anchor="middle" x="502" y="-137.8" font-family="Times,serif" font-size="14.00">19: extract_training_features()</text>
</g>
<!-- node_3948b6a2&#45;&gt;node_6924cba2 -->
<g id="edge1" class="edge">
<title>node_3948b6a2&#45;&gt;node_6924cba2</title>
<path fill="none" stroke="#56b4e9" stroke-width="2" d="M213.08,-155.5C213.08,-155.5 374.22,-155.5 374.22,-155.5"/>
<polygon fill="#56b4e9" stroke="#56b4e9" stroke-width="2" points="374.22,-159 384.22,-155.5 374.22,-152 374.22,-159"/>
</g>
<!-- node_200d678c -->
<g id="node4" class="node">
<title>node_200d678c</title>
<path fill="#6db33f" stroke="black" d="M629,-213.5C629,-213.5 375,-213.5 375,-213.5 369,-213.5 363,-207.5 363,-201.5 363,-201.5 363,-189.5 363,-189.5 363,-183.5 369,-177.5 375,-177.5 375,-177.5 629,-177.5 629,-177.5 635,-177.5 641,-183.5 641,-189.5 641,-189.5 641,-201.5 641,-201.5 641,-207.5 635,-213.5 629,-213.5"/>
<text text-anchor="middle" x="502" y="-191.8" font-family="Times,serif" font-size="14.00">57: train_and_bundle_meta_learner()</text>
</g>
<!-- node_3948b6a2&#45;&gt;node_200d678c -->
<g id="edge2" class="edge">
<title>node_3948b6a2&#45;&gt;node_200d678c</title>
<path fill="none" stroke="#56b4e9" stroke-width="2" d="M213.08,-182.5C213.08,-182.5 352.99,-182.5 352.99,-182.5"/>
<polygon fill="#56b4e9" stroke="#56b4e9" stroke-width="2" points="352.99,-186 362.99,-182.5 352.99,-179 352.99,-186"/>
</g>
</g>
</svg>
